<svg width="63" height="64" viewBox="0 0 63 64" fill="none" xmlns="http://www.w3.org/2000/svg">
<path d="M31.5 13C25.5293 13 20.6719 17.9346 20.6719 24C20.6719 30.0654 25.5293 35 31.5 35C37.4707 35 42.3281 30.0654 42.3281 24C42.3281 17.9346 37.4707 13 31.5 13ZM40.3594 24C40.3594 24.5611 40.3019 25.1081 40.2047 25.6411L37.4062 24L40.2047 22.3589C40.3019 22.8919 40.3594 23.4389 40.3594 24ZM22.6406 24C22.6406 23.4389 22.6981 22.8919 22.7953 22.3589L25.5938 24L22.7953 25.6411C22.6981 25.1081 22.6406 24.5611 22.6406 24ZM25.752 17.1647C26.5689 16.4547 27.5143 15.8976 28.5469 15.5251V18.8037L25.752 17.1647ZM27.8348 20.6958C27.398 21.1953 27.0645 21.7807 26.8516 22.4279L23.3873 20.3964C23.6535 19.7803 23.9894 19.204 24.3785 18.6689L27.8348 20.6958ZM26.8516 25.5721C27.0645 26.2193 27.398 26.8047 27.8348 27.3042L24.3785 29.3311C23.9894 28.796 23.6535 28.2197 23.3873 27.6036L26.8516 25.5721ZM28.5469 29.1963V32.4749C27.5143 32.1024 26.5689 31.5453 25.752 30.8353L28.5469 29.1963ZM28.5469 24C28.5469 22.3457 29.8715 21 31.5 21C33.1285 21 34.4531 22.3457 34.4531 24C34.4531 25.6543 33.1285 27 31.5 27C29.8715 27 28.5469 25.6543 28.5469 24ZM35.1652 20.6958L38.6215 18.6689C39.0106 19.204 39.3466 19.7803 39.6128 20.3963L36.1484 22.4279C35.9355 21.7807 35.602 21.1953 35.1652 20.6958ZM34.4531 18.8037V15.5251C35.4857 15.8976 36.4311 16.4547 37.248 17.1647L34.4531 18.8037ZM37.248 30.8353C36.4311 31.5453 35.4857 32.1024 34.4531 32.4749V29.1963L37.248 30.8353ZM35.1652 27.3042C35.602 26.8047 35.9355 26.2193 36.1484 25.5721L39.6128 27.6037C39.3466 28.2197 39.0106 28.796 38.6215 29.3311L35.1652 27.3042ZM32.4844 15.059V19.1011C32.1662 19.0352 31.8371 19 31.5 19C31.1629 19 30.8338 19.0352 30.5156 19.1011V15.059C30.8392 15.0224 31.167 15 31.5 15C31.833 15 32.1608 15.0224 32.4844 15.059ZM30.5156 32.941V28.8989C30.8338 28.9648 31.1629 29 31.5 29C31.8371 29 32.1662 28.9648 32.4844 28.8989V32.941C32.1608 32.9776 31.833 33 31.5 33C31.167 33 30.8392 32.9776 30.5156 32.941Z" fill="#DB323E"/>
<path d="M49.2188 39H39.3583C44.6339 36.1362 48.2344 30.4894 48.2344 24C48.2344 14.626 40.7276 7 31.5 7C22.2724 7 14.7656 14.626 14.7656 24C14.7656 30.4894 18.3661 36.1362 23.6417 39H13.7812C12.1528 39 10.8281 40.3457 10.8281 42V54C10.8281 55.6543 12.1528 57 13.7812 57H49.2188C50.8472 57 52.1719 55.6543 52.1719 54V42C52.1719 40.3457 50.8472 39 49.2188 39ZM23.2174 52L20.2643 55H17.142L20.0951 52H23.2174ZM26.0013 52H29.1237L26.1705 55H23.0482L26.0013 52ZM31.9076 52H35.0299L32.0768 55H28.9545L31.9076 52ZM37.8138 52H40.9362L37.983 55H34.8607L37.8138 52ZM43.7201 52H46.8424L43.8893 55H40.767L43.7201 52ZM12.7969 50V46H50.2031V50H12.7969ZM26.1705 41L29.1237 44H26.0013L23.0482 41H26.1705ZM32.0768 41L35.0299 44H31.9076L28.9545 41H32.0768ZM43.7201 44L40.767 41H43.8893L46.8424 44H43.7201ZM37.983 41L40.9362 44H37.8138L34.8607 41H37.983ZM23.2174 44H20.0951L17.142 41H20.2643L23.2174 44ZM50.2031 42V44H49.6263L46.6732 41H49.2188C49.7619 41 50.2031 41.4487 50.2031 42ZM16.7344 24C16.7344 15.729 23.3578 9 31.5 9C39.6422 9 46.2656 15.729 46.2656 24C46.2656 32.271 39.6422 39 31.5 39C23.3578 39 16.7344 32.271 16.7344 24ZM12.7969 42C12.7969 41.4487 13.2381 41 13.7812 41H14.358L17.3112 44H12.7969V42ZM12.7969 54V52H17.3112L14.358 55H13.7812C13.2381 55 12.7969 54.5513 12.7969 54ZM50.2031 54C50.2031 54.5513 49.7619 55 49.2188 55H46.6732L49.6263 52H50.2031V54Z" fill="#DB323E"/>
</svg>
