<svg width="198" height="40" viewBox="0 0 198 40" fill="none" xmlns="http://www.w3.org/2000/svg">
<path d="M0 11.0026C0 4.43742 4.0722 0.00791272 11.7747 0.00791272H61.7617V9.31778H13.2741C11.9167 9.31778 10.7093 10.0138 10.7093 12.0704V27.5895C10.7093 29.472 11.4984 30.6901 13.9765 30.6901H48.1246C49.9239 30.6901 51.3129 30.0494 51.3129 27.6765V24.0459H31.3228V15.179H61.7617V29.4404C61.7617 36.2666 56.8056 40 49.0243 40H11.8536C4.33263 40 0 35.9185 0 29.0844V11.0026ZM106.351 40L123.429 9.66581V40H134.13V0.00791272H117.668L101.387 28.7285L85.1059 0H68.6513V39.9921H79.3527V9.66581L96.4307 40H106.351ZM197.297 40H152.534C144.997 40 140.68 35.9185 140.68 29.0923V11.0026C140.68 4.43742 144.737 0.00791272 152.439 0.00791272H197.297V10.0613H153.947C152.589 10.0613 151.374 10.7495 151.374 12.806V26.846C151.374 28.7364 152.171 29.9466 154.649 29.9466H197.297V40Z" fill="#DB323E"/>
</svg>
