<svg width="40" height="40" viewBox="0 0 40 40" fill="none" xmlns="http://www.w3.org/2000/svg">
<path d="M18.0068 21.5201H22.8548V19.9041H22.3268C22.3268 20.5281 21.8788 20.9761 21.1748 20.9761H20.4388V18.5601H21.2388V18.0161H18.0068V18.5601H18.8228V20.9761H18.0068V21.5201Z" fill="#DB323E"/>
<path d="M25.1745 21.5201H27.0582L28.6706 18.5601H29.4688V18.0161H27.0582V18.5601H27.7606L26.5793 20.7201L25.414 18.5601H26.2601V18.0161H22.748V18.5601H23.5462L25.1745 21.5201Z" fill="#DB323E"/>
<path d="M8.36518 18.0161H4.86914V18.5601H5.66732L7.29562 21.5201H9.17933L10.7757 18.5601H11.5739V18.0161H9.16337V18.5601H9.86577L8.70042 20.7201L7.51911 18.5601H8.36518V18.0161Z" fill="#DB323E"/>
<path d="M12.0527 19.7759C12.0527 20.7999 12.8847 21.6319 14.5487 21.6319C16.2127 21.6319 17.0287 20.8159 17.0287 19.7759C17.0287 18.7519 16.1647 17.9519 14.5327 17.9519C12.9167 17.9359 12.0527 18.7519 12.0527 19.7759ZM15.3967 19.7759C15.3807 20.4159 15.1247 21.0719 14.5167 21.0559C13.9247 21.0399 13.6687 20.3839 13.6687 19.7439C13.6847 19.0719 14.0047 18.4799 14.5647 18.4959C15.1247 18.4959 15.4127 19.1039 15.3967 19.7759Z" fill="#DB323E"/>
<path d="M29.9316 19.7759C29.9316 20.7999 30.7636 21.6319 32.4276 21.6319C34.0916 21.6319 34.9076 20.8159 34.9076 19.7759C34.9076 18.7519 34.0436 17.9519 32.4116 17.9519C30.7956 17.9359 29.9316 18.7519 29.9316 19.7759ZM32.4436 18.4959C33.0036 18.5119 33.2916 19.1039 33.2756 19.7759C33.2596 20.4159 33.0036 21.0719 32.3956 21.0559C31.8036 21.0399 31.5476 20.3839 31.5476 19.7439C31.5636 19.0719 31.8836 18.4799 32.4436 18.4959Z" fill="#DB323E"/>
<path d="M36.3812 8.64L34.3538 10.672C36.0938 13.36 37.0995 16.56 37.0995 20C37.0995 29.488 29.421 37.184 19.9546 37.184C10.4881 37.184 2.8096 29.488 2.8096 20C2.8096 10.512 10.4881 2.816 19.9546 2.816C23.4027 2.816 26.5955 3.84 29.2774 5.584L31.3047 3.552C28.096 1.312 24.169 0 19.9546 0C8.93965 0 0 8.96 0 20C0 31.04 8.93965 40 19.9546 40C30.9695 40 39.9091 31.04 39.9091 20C39.9091 15.776 38.6001 11.856 36.3812 8.64Z" fill="#DB323E"/>
<path d="M29.9961 0.78418V1.34418C31.2093 2.00018 32.3428 2.78418 33.3964 3.64818L30.5548 6.49618C31.6244 7.34418 32.5982 8.30418 33.4442 9.37618L36.2858 6.52818C37.1638 7.58418 37.93 8.73618 38.5846 9.92018H39.1273V0.78418H29.9961Z" fill="#DB323E"/>
</svg>
